<svg width="47" height="46" viewBox="0 0 47 46" fill="none" xmlns="http://www.w3.org/2000/svg">
<path d="M12.3335 11.9791V15.8125" stroke="white" stroke-width="3" stroke-linecap="round" stroke-linejoin="round"/>
<path d="M43.0001 23V17.25C43.0001 7.66671 39.1667 3.83337 29.5834 3.83337H18.0834C8.50008 3.83337 4.66675 7.66671 4.66675 17.25V28.75C4.66675 38.3334 8.50008 42.1667 18.0834 42.1667H23.8334" stroke="white" stroke-width="3" stroke-linecap="round" stroke-linejoin="round"/>
<path d="M20.0002 11.9791V15.8125" stroke="white" stroke-width="3" stroke-linecap="round" stroke-linejoin="round"/>
<path d="M12.3335 30.6666V34.5" stroke="white" stroke-width="3" stroke-linecap="round" stroke-linejoin="round"/>
<path d="M20.0002 30.6666V34.5" stroke="white" stroke-width="3" stroke-linecap="round" stroke-linejoin="round"/>
<path d="M27.6667 13.8959H35.3334" stroke="white" stroke-width="3" stroke-linecap="round" stroke-linejoin="round"/>
<path d="M4.66675 23H43.0001" stroke="white" stroke-width="3" stroke-linecap="round" stroke-linejoin="round"/>
<path d="M42.1567 38.9658C41.0834 40.825 39.0709 42.0708 36.7709 42.0708C33.3401 42.0708 31.2317 38.6208 31.2317 38.6208M31.3659 32.7558C32.4392 30.8775 34.4517 29.6316 36.7709 29.6316C40.9301 29.6316 43.0001 33.0816 43.0001 33.0816M43.0001 29.2291V33.0625H39.1667M35.065 38.6016H31.2317V42.1666" stroke="white" stroke-width="3" stroke-linecap="round" stroke-linejoin="round"/>
</svg>
