<svg width="47" height="46" viewBox="0 0 47 46" fill="none" xmlns="http://www.w3.org/2000/svg">
<path d="M18.3902 20.8342C18.1985 20.815 17.9685 20.815 17.7577 20.8342C13.196 20.6809 9.57349 16.9434 9.57349 12.3434C9.57349 7.64754 13.3685 3.83337 18.0835 3.83337C22.7793 3.83337 26.5935 7.64754 26.5935 12.3434C26.5743 16.9434 22.9518 20.6809 18.3902 20.8342Z" stroke="white" stroke-width="3" stroke-linecap="round" stroke-linejoin="round"/>
<path d="M32.286 7.66663C36.0044 7.66663 38.9944 10.6758 38.9944 14.375C38.9944 17.9975 36.1194 20.9491 32.5352 21.0833C32.3819 21.0641 32.2094 21.0641 32.0369 21.0833" stroke="white" stroke-width="3" stroke-linecap="round" stroke-linejoin="round"/>
<path d="M8.80688 27.9066C4.16854 31.0116 4.16854 36.0716 8.80688 39.1575C14.0777 42.6841 22.7219 42.6841 27.9927 39.1575C32.631 36.0525 32.631 30.9925 27.9927 27.9066C22.741 24.3991 14.0969 24.3991 8.80688 27.9066Z" stroke="white" stroke-width="3" stroke-linecap="round" stroke-linejoin="round"/>
<path d="M35.9851 38.3334C37.3651 38.0459 38.6684 37.49 39.7418 36.6659C42.7318 34.4234 42.7318 30.7242 39.7418 28.4817C38.6876 27.6767 37.4034 27.14 36.0426 26.8334" stroke="white" stroke-width="3" stroke-linecap="round" stroke-linejoin="round"/>
</svg>
