<svg width="47" height="46" viewBox="0 0 47 46" fill="none" xmlns="http://www.w3.org/2000/svg">
<path d="M42.3333 28.75V17.25C42.3333 7.66671 38.5 3.83337 28.9167 3.83337H17.4167C7.83333 3.83337 4 7.66671 4 17.25V28.75C4 38.3334 7.83333 42.1667 17.4167 42.1667H28.9167C38.5 42.1667 42.3333 38.3334 42.3333 28.75Z" stroke="white" stroke-width="3" stroke-linecap="round" stroke-linejoin="round"/>
<path d="M4.99683 13.6274H41.3368" stroke="white" stroke-width="3" stroke-linecap="round" stroke-linejoin="round"/>
<path d="M16.4968 4.04419V13.3592" stroke="white" stroke-width="3" stroke-linecap="round" stroke-linejoin="round"/>
<path d="M29.8367 4.04419V12.4967" stroke="white" stroke-width="3" stroke-linecap="round" stroke-linejoin="round"/>
<path d="M18.8542 27.6959V25.3959C18.8542 22.4442 20.9434 21.2367 23.4926 22.7125L25.4859 23.8625L27.4792 25.0125C30.0284 26.4884 30.0284 28.9034 27.4792 30.3792L25.4859 31.5292L23.4926 32.6792C20.9434 34.155 18.8542 32.9475 18.8542 29.9958V27.6959V27.6959Z" stroke="white" stroke-width="3" stroke-miterlimit="10" stroke-linecap="round" stroke-linejoin="round"/>
</svg>
