<svg width="47" height="47" viewBox="0 0 47 47" fill="none" xmlns="http://www.w3.org/2000/svg">
<path d="M32.1747 36.8784H14.1581C13.3531 36.8784 12.4522 36.2459 12.1839 35.4793L4.2489 13.2843C3.11806 10.1026 4.44056 9.1251 7.16223 11.0801L14.6372 16.4276C15.8831 17.2901 17.3014 16.8493 17.8381 15.4501L21.2114 6.46094C22.2847 3.58594 24.0672 3.58594 25.1406 6.46094L28.5139 15.4501C29.0506 16.8493 30.4689 17.2901 31.6956 16.4276L38.7106 11.4251C41.7006 9.27844 43.1381 10.3709 41.9114 13.8401L34.1681 35.5176C33.8806 36.2459 32.9797 36.8784 32.1747 36.8784Z" stroke="#640EF1" stroke-width="3" stroke-linecap="round" stroke-linejoin="round"/>
<path d="M12.6248 42.6665H33.7081" stroke="#640EF1" stroke-width="3" stroke-linecap="round" stroke-linejoin="round"/>
<path d="M18.3748 27.3335H27.9581" stroke="#640EF1" stroke-width="3" stroke-linecap="round" stroke-linejoin="round"/>
</svg>
