<svg width="142" height="34" viewBox="0 0 142 34" fill="none" xmlns="http://www.w3.org/2000/svg">
<g clip-path="url(#clip0_201_1314)">
<path d="M43.2378 23.3339H53.1492V20.3486H46.7605V9.1037H43.2378V23.3339Z" fill="#61647D"/>
<path d="M59.0215 21.3437C57.6084 21.3437 56.872 20.1098 56.872 18.2589C56.872 16.4079 57.6084 15.1541 59.0215 15.1541C60.4346 15.1541 61.1909 16.4079 61.1909 18.2589C61.1909 20.1098 60.4346 21.3437 59.0215 21.3437ZM59.0414 23.6524C62.3253 23.6524 64.4748 21.3238 64.4748 18.2589C64.4748 15.1939 62.3253 12.8653 59.0414 12.8653C55.7774 12.8653 53.5881 15.1939 53.5881 18.2589C53.5881 21.3238 55.7774 23.6524 59.0414 23.6524Z" fill="#61647D"/>
<path d="M70.1589 26.8567C71.6715 26.8567 73.0049 26.5183 73.9006 25.7222C74.7166 24.9858 75.2539 23.8713 75.2539 22.3388V13.1439H72.1491V14.2385H72.1093C71.5123 13.3827 70.5967 12.8453 69.2434 12.8453C66.7158 12.8453 64.9644 14.955 64.9644 17.9404C64.9644 21.065 67.0939 22.7767 69.3827 22.7767C70.6167 22.7767 71.3928 22.2791 71.9899 21.6024H72.0695V22.6174C72.0695 23.8514 71.4924 24.5679 70.1191 24.5679C69.0444 24.5679 68.507 24.1101 68.3279 23.5728H65.1833C65.5017 25.7023 67.3526 26.8567 70.1589 26.8567ZM70.139 20.3685C68.9249 20.3685 68.1288 19.3733 68.1288 17.8408C68.1288 16.2885 68.9249 15.2933 70.139 15.2933C71.4924 15.2933 72.2088 16.4477 72.2088 17.8209C72.2088 19.2539 71.5521 20.3685 70.139 20.3685Z" fill="#61647D"/>
<path d="M81.638 21.3437C80.2249 21.3437 79.4885 20.1098 79.4885 18.2589C79.4885 16.4079 80.2249 15.1541 81.638 15.1541C83.051 15.1541 83.8073 16.4079 83.8073 18.2589C83.8073 20.1098 83.051 21.3437 81.638 21.3437ZM81.6579 23.6524C84.9418 23.6524 87.0912 21.3238 87.0912 18.2589C87.0912 15.1939 84.9418 12.8653 81.6579 12.8653C78.3939 12.8653 76.2046 15.1939 76.2046 18.2589C76.2046 21.3238 78.3939 23.6524 81.6579 23.6524Z" fill="#61647D"/>
<path d="M88.0381 23.3339H91.2822V13.1439H88.0381V23.3339ZM88.0381 11.7308H91.2822V9.1037H88.0381V11.7308Z" fill="#61647D"/>
<path d="M92.6904 26.6974H95.9345V22.2791H95.9743C96.6112 23.1349 97.5466 23.6524 98.8602 23.6524C101.527 23.6524 103.298 21.5427 103.298 18.2389C103.298 15.1739 101.647 12.8453 98.9398 12.8453C97.5466 12.8453 96.5515 13.4623 95.8549 14.3778H95.7952V13.1439H92.6904V26.6974ZM98.0243 21.1447C96.6311 21.1447 95.835 20.0102 95.835 18.3583C95.835 16.7064 96.5515 15.4526 97.9646 15.4526C99.3577 15.4526 100.015 16.6069 100.015 18.3583C100.015 20.0898 99.2582 21.1447 98.0243 21.1447Z" fill="#61647D"/>
<path d="M108.58 23.6524C111.247 23.6524 113.217 22.498 113.217 20.2689C113.217 17.6617 111.108 17.204 109.316 16.9054C108.023 16.6666 106.868 16.5671 106.868 15.8506C106.868 15.2137 107.485 14.9152 108.281 14.9152C109.177 14.9152 109.794 15.1938 109.913 16.1093H112.899C112.74 14.0992 111.187 12.8453 108.301 12.8453C105.893 12.8453 103.903 13.9599 103.903 16.1093C103.903 18.4976 105.794 18.9753 107.565 19.2738C108.918 19.5127 110.152 19.6122 110.152 20.5277C110.152 21.1845 109.535 21.5427 108.56 21.5427C107.485 21.5427 106.809 21.0451 106.689 20.0301H103.624C103.724 22.2791 105.595 23.6524 108.58 23.6524Z" fill="#61647D"/>
<path d="M117.624 23.6325C119.037 23.6325 119.933 23.0752 120.669 22.0801H120.729V23.334H123.834V13.1439H120.589V18.836C120.589 20.0501 119.913 20.886 118.798 20.886C117.763 20.886 117.266 20.269 117.266 19.1545V13.1439H114.042V19.8311C114.042 22.1 115.275 23.6325 117.624 23.6325Z" fill="#61647D"/>
<path d="M125.244 23.3339H128.488V17.6219C128.488 16.4079 129.085 15.5521 130.1 15.5521C131.076 15.5521 131.533 16.1889 131.533 17.2836V23.3339H134.777V17.6219C134.777 16.4079 135.355 15.5521 136.39 15.5521C137.365 15.5521 137.822 16.1889 137.822 17.2836V23.3339H141.067V16.7064C141.067 14.4176 139.912 12.8453 137.604 12.8453C136.29 12.8453 135.195 13.4026 134.399 14.6366H134.359C133.842 13.5419 132.827 12.8453 131.494 12.8453C130.021 12.8453 129.046 13.5419 128.409 14.5968H128.349V13.1439H125.244V23.3339Z" fill="#61647D"/>
<path fill-rule="evenodd" clip-rule="evenodd" d="M17.3847 33.2851C26.5445 33.2851 33.9701 25.8596 33.9701 16.6998C33.9701 7.53997 26.5445 0.114441 17.3847 0.114441C8.22482 0.114441 0.799316 7.53997 0.799316 16.6998C0.799316 25.8596 8.22482 33.2851 17.3847 33.2851ZM22.5588 7.8406C22.8106 6.94599 21.9424 6.41699 21.1496 6.98186L10.0814 14.8668C9.22155 15.4793 9.3568 16.6998 10.2846 16.6998H13.1991V16.6772H18.8795L14.2511 18.3103L12.2106 25.559C11.9588 26.4536 12.8269 26.9826 13.6198 26.4177L24.688 18.5329C25.5478 17.9203 25.4125 16.6998 24.4848 16.6998H20.065L22.5588 7.8406Z" fill="#61647D"/>
</g>
<defs>
<clipPath id="clip0_201_1314">
<rect width="140.976" height="34" fill="white" transform="translate(0.231934)"/>
</clipPath>
</defs>
</svg>
