<svg width="47" height="46" viewBox="0 0 47 46" fill="none" xmlns="http://www.w3.org/2000/svg">
<path d="M31.6958 27.6V16.2917C31.6958 15.2375 30.8333 14.375 29.7791 14.375H24.2207" stroke="white" stroke-width="3" stroke-linecap="round" stroke-linejoin="round"/>
<path d="M27.0957 11.5L23.6458 14.375L27.0957 17.25" stroke="white" stroke-width="3" stroke-linecap="round" stroke-linejoin="round"/>
<path d="M14.6375 19.55V27.6" stroke="white" stroke-width="3" stroke-linecap="round" stroke-linejoin="round"/>
<path d="M14.925 18.975C16.9892 18.975 18.6625 17.3017 18.6625 15.2375C18.6625 13.1734 16.9892 11.5 14.925 11.5C12.8609 11.5 11.1875 13.1734 11.1875 15.2375C11.1875 17.3017 12.8609 18.975 14.925 18.975Z" stroke="white" stroke-width="3" stroke-linecap="round" stroke-linejoin="round"/>
<path d="M14.6375 34.5C16.5429 34.5 18.0875 32.9554 18.0875 31.05C18.0875 29.1446 16.5429 27.6 14.6375 27.6C12.7321 27.6 11.1875 29.1446 11.1875 31.05C11.1875 32.9554 12.7321 34.5 14.6375 34.5Z" stroke="white" stroke-width="3" stroke-linecap="round" stroke-linejoin="round"/>
<path d="M31.6958 34.5C33.6012 34.5 35.1458 32.9554 35.1458 31.05C35.1458 29.1446 33.6012 27.6 31.6958 27.6C29.7904 27.6 28.2458 29.1446 28.2458 31.05C28.2458 32.9554 29.7904 34.5 31.6958 34.5Z" stroke="white" stroke-width="3" stroke-linecap="round" stroke-linejoin="round"/>
<path d="M17.4167 42.1667H28.9167C38.5 42.1667 42.3333 38.3334 42.3333 28.75V17.25C42.3333 7.66671 38.5 3.83337 28.9167 3.83337H17.4167C7.83333 3.83337 4 7.66671 4 17.25V28.75C4 38.3334 7.83333 42.1667 17.4167 42.1667Z" stroke="white" stroke-width="3" stroke-linecap="round" stroke-linejoin="round"/>
</svg>
