<svg width="47" height="47" viewBox="0 0 47 47" fill="none" xmlns="http://www.w3.org/2000/svg">
<path d="M20.2724 5.02424L10.7082 8.6084C8.50405 9.43256 6.70239 12.0392 6.70239 14.3967V28.6375C6.70239 30.8992 8.19741 33.87 10.0182 35.2309L18.2599 41.3834C20.9624 43.4151 25.409 43.4151 28.1115 41.3834L36.3532 35.2309C38.1741 33.87 39.669 30.8992 39.669 28.6375V14.3967C39.669 12.0392 37.8674 9.43256 35.6632 8.6084L26.0991 5.02424C24.4699 4.43007 21.8632 4.43007 20.2724 5.02424Z" stroke="white" stroke-width="3" stroke-linecap="round" stroke-linejoin="round"/>
<path d="M23.1666 21.6801C23.0899 21.6801 22.9941 21.6801 22.9174 21.6801C21.1157 21.6226 19.6782 20.1275 19.6782 18.3067C19.6782 16.4475 21.1924 14.9333 23.0516 14.9333C24.9107 14.9333 26.4249 16.4475 26.4249 18.3067C26.4058 20.1467 24.9682 21.6226 23.1666 21.6801Z" stroke="white" stroke-width="3" stroke-linecap="round" stroke-linejoin="round"/>
<path d="M19.3524 27.0467C17.5124 28.2734 17.5124 30.2858 19.3524 31.5125C21.4416 32.9117 24.8724 32.9117 26.9616 31.5125C28.8016 30.2858 28.8016 28.2734 26.9616 27.0467C24.8916 25.6475 21.4607 25.6475 19.3524 27.0467Z" stroke="white" stroke-width="3" stroke-linecap="round" stroke-linejoin="round"/>
</svg>
