<svg width="140" height="34" viewBox="0 0 140 34" fill="none" xmlns="http://www.w3.org/2000/svg">
<g clip-path="url(#clip0_201_1292)">
<path d="M41.0962 23.8776H51.0076V20.8923H44.6189V9.6474H41.0962V23.8776Z" fill="#61647D"/>
<path d="M56.8799 21.8874C55.4668 21.8874 54.7304 20.6534 54.7304 18.8025C54.7304 16.9516 55.4668 15.6977 56.8799 15.6977C58.293 15.6977 59.0493 16.9516 59.0493 18.8025C59.0493 20.6534 58.293 21.8874 56.8799 21.8874ZM56.8998 24.1961C60.1837 24.1961 62.3332 21.8675 62.3332 18.8025C62.3332 15.7375 60.1837 13.4089 56.8998 13.4089C53.6358 13.4089 51.4465 15.7375 51.4465 18.8025C51.4465 21.8675 53.6358 24.1961 56.8998 24.1961Z" fill="#61647D"/>
<path d="M68.0173 27.4004C69.5299 27.4004 70.8633 27.062 71.7589 26.2659C72.5749 25.5295 73.1123 24.415 73.1123 22.8825V13.6876H70.0075V14.7822H69.9677C69.3707 13.9264 68.4551 13.389 67.1018 13.389C64.5742 13.389 62.8228 15.4987 62.8228 18.4841C62.8228 21.6087 64.9523 23.3204 67.2411 23.3204C68.475 23.3204 69.2512 22.8228 69.8483 22.1461H69.9279V23.1611C69.9279 24.3951 69.3508 25.1116 67.9775 25.1116C66.9028 25.1116 66.3654 24.6538 66.1863 24.1165H63.0417C63.3601 26.246 65.211 27.4004 68.0173 27.4004ZM67.9974 20.9122C66.7833 20.9122 65.9872 19.917 65.9872 18.3846C65.9872 16.8322 66.7833 15.837 67.9974 15.837C69.3508 15.837 70.0672 16.9914 70.0672 18.3646C70.0672 19.7976 69.4105 20.9122 67.9974 20.9122Z" fill="#61647D"/>
<path d="M79.4964 21.8874C78.0833 21.8874 77.3469 20.6534 77.3469 18.8025C77.3469 16.9516 78.0833 15.6977 79.4964 15.6977C80.9094 15.6977 81.6657 16.9516 81.6657 18.8025C81.6657 20.6534 80.9094 21.8874 79.4964 21.8874ZM79.5163 24.1961C82.8002 24.1961 84.9499 21.8675 84.9499 18.8025C84.9499 15.7375 82.8002 13.4089 79.5163 13.4089C76.2523 13.4089 74.063 15.7375 74.063 18.8025C74.063 21.8675 76.2523 24.1961 79.5163 24.1961Z" fill="#61647D"/>
<path d="M85.897 23.8776H89.1411V13.6876H85.897V23.8776ZM85.897 12.2745H89.1411V9.6474H85.897V12.2745Z" fill="#61647D"/>
<path d="M90.5483 27.2411H93.7924V22.8228H93.8322C94.4691 23.6786 95.4045 24.1961 96.7181 24.1961C99.385 24.1961 101.156 22.0864 101.156 18.7826C101.156 15.7176 99.5044 13.389 96.7977 13.389C95.4045 13.389 94.4094 14.006 93.7128 14.9215H93.6531V13.6876H90.5483V27.2411ZM95.8822 21.6884C94.489 21.6884 93.6929 20.5539 93.6929 18.902C93.6929 17.2501 94.4094 15.9963 95.8225 15.9963C97.2157 15.9963 97.8724 17.1506 97.8724 18.902C97.8724 20.6335 97.1161 21.6884 95.8822 21.6884Z" fill="#61647D"/>
<path d="M106.439 24.1961C109.106 24.1961 111.076 23.0417 111.076 20.8126C111.076 18.2054 108.966 17.7477 107.175 17.4491C105.881 17.2103 104.727 17.1108 104.727 16.3943C104.727 15.7574 105.344 15.4589 106.14 15.4589C107.036 15.4589 107.653 15.7375 107.772 16.653H110.757C110.598 14.6429 109.046 13.389 106.16 13.389C103.752 13.389 101.762 14.5036 101.762 16.653C101.762 19.0413 103.652 19.519 105.424 19.8175C106.777 20.0564 108.011 20.1559 108.011 21.0714C108.011 21.7282 107.394 22.0864 106.419 22.0864C105.344 22.0864 104.667 21.5888 104.548 20.5738H101.483C101.582 22.8228 103.453 24.1961 106.439 24.1961Z" fill="#61647D"/>
<path d="M115.482 24.1761C116.895 24.1761 117.791 23.6189 118.527 22.6238H118.587V23.8776H121.691V13.6876H118.447V19.3797C118.447 20.5937 117.771 21.4296 116.656 21.4296C115.621 21.4296 115.124 20.8126 115.124 19.6981V13.6876H111.899V20.3748C111.899 22.6437 113.133 24.1761 115.482 24.1761Z" fill="#61647D"/>
<path d="M123.103 23.8776H126.347V18.1656C126.347 16.9516 126.944 16.0958 127.959 16.0958C128.934 16.0958 129.392 16.7326 129.392 17.8273V23.8776H132.636V18.1656C132.636 16.9516 133.213 16.0958 134.248 16.0958C135.223 16.0958 135.681 16.7326 135.681 17.8273V23.8776H138.925V17.2501C138.925 14.9613 137.771 13.389 135.462 13.389C134.149 13.389 133.054 13.9463 132.258 15.1803H132.218C131.701 14.0856 130.686 13.389 129.352 13.389C127.879 13.389 126.904 14.0856 126.267 15.1405H126.208V13.6876H123.103V23.8776Z" fill="#61647D"/>
<path fill-rule="evenodd" clip-rule="evenodd" d="M7.94505 3.22706C6.75865 4.05663 5.68582 5.03745 4.75451 6.14155C8.56027 5.78823 13.3954 6.36516 19.0088 9.17193C25.0033 12.1691 29.8303 12.2704 33.1897 11.6224C32.8848 10.6995 32.501 9.81254 32.0465 8.96934C28.2009 9.37494 23.2709 8.83807 17.5254 5.9654C13.877 4.14118 10.6609 3.38972 7.94505 3.22706ZM29.8001 5.77191C26.7632 2.37883 22.35 0.243469 17.4379 0.243469C15.9954 0.243469 14.5957 0.427656 13.2614 0.77377C15.0686 1.26686 16.9883 1.98824 19.0088 2.99852C23.2154 5.10176 26.8471 5.77896 29.8001 5.77191ZM33.9079 14.8619C29.8494 15.6633 24.2452 15.4987 17.5254 12.1388C11.2432 8.9977 6.24314 9.03726 2.8709 9.78667C2.69683 9.82531 2.52686 9.86595 2.361 9.90824C1.91949 10.8684 1.56706 11.8782 1.31419 12.9267C1.58427 12.8545 1.86336 12.786 2.15131 12.7219C6.24243 11.8128 12.0228 11.8523 19.0088 15.3453C25.2911 18.4864 30.2912 18.4469 33.6635 17.6975C33.779 17.6718 33.8929 17.6453 34.0048 17.6179C34.0171 17.3565 34.0232 17.0933 34.0232 16.8288C34.0232 16.1633 33.9841 15.507 33.9079 14.8619ZM33.4633 21.118C29.4443 21.8207 24.0032 21.551 17.5254 18.3122C11.2432 15.1711 6.24314 15.2107 2.8709 15.9601C2.12236 16.1263 1.44898 16.3289 0.854969 16.5428C0.853349 16.6379 0.852539 16.7333 0.852539 16.8288C0.852539 25.9887 8.27805 33.4142 17.4379 33.4142C25.1145 33.4142 31.573 28.1988 33.4633 21.118Z" fill="#61647D"/>
</g>
<defs>
<clipPath id="clip0_201_1292">
<rect width="138.488" height="34" fill="white" transform="translate(0.768311)"/>
</clipPath>
</defs>
</svg>
