<svg width="142" height="34" viewBox="0 0 142 34" fill="none" xmlns="http://www.w3.org/2000/svg">
<g clip-path="url(#clip0_201_1303)">
<path d="M42.7788 24.3168H52.6902V21.3314H46.3015V10.0865H42.7788V24.3168Z" fill="white"/>
<path d="M58.5625 22.3266C57.1494 22.3266 56.4131 21.0926 56.4131 19.2417C56.4131 17.3908 57.1494 16.1369 58.5625 16.1369C59.9756 16.1369 60.7319 17.3908 60.7319 19.2417C60.7319 21.0926 59.9756 22.3266 58.5625 22.3266ZM58.5824 24.6353C61.8663 24.6353 64.0158 22.3067 64.0158 19.2417C64.0158 16.1767 61.8663 13.8481 58.5824 13.8481C55.3184 13.8481 53.1292 16.1767 53.1292 19.2417C53.1292 22.3067 55.3184 24.6353 58.5824 24.6353Z" fill="white"/>
<path d="M69.6999 27.8395C71.2125 27.8395 72.546 27.5012 73.4416 26.7051C74.2576 25.9687 74.7949 24.8541 74.7949 23.3216V14.1267H71.6902V15.2214H71.6504C71.0533 14.3656 70.1378 13.8282 68.7844 13.8282C66.2568 13.8282 64.5054 15.9378 64.5054 18.9232C64.5054 22.0479 66.6349 23.7595 68.9237 23.7595C70.1577 23.7595 70.9339 23.2619 71.5309 22.5853H71.6105V23.6003C71.6105 24.8342 71.0334 25.5507 69.6601 25.5507C68.5854 25.5507 68.048 25.093 67.8689 24.5556H64.7243C65.0427 26.6852 66.8937 27.8395 69.6999 27.8395ZM69.68 21.3513C68.466 21.3513 67.6699 20.3562 67.6699 18.8237C67.6699 17.2713 68.466 16.2762 69.68 16.2762C71.0334 16.2762 71.7499 17.4305 71.7499 18.8038C71.7499 20.2368 71.0931 21.3513 69.68 21.3513Z" fill="white"/>
<path d="M81.179 22.3266C79.7659 22.3266 79.0295 21.0926 79.0295 19.2417C79.0295 17.3908 79.7659 16.1369 81.179 16.1369C82.592 16.1369 83.348 17.3908 83.348 19.2417C83.348 21.0926 82.592 22.3266 81.179 22.3266ZM81.1989 24.6353C84.4824 24.6353 86.6319 22.3067 86.6319 19.2417C86.6319 16.1767 84.4824 13.8481 81.1989 13.8481C77.9349 13.8481 75.7456 16.1767 75.7456 19.2417C75.7456 22.3067 77.9349 24.6353 81.1989 24.6353Z" fill="white"/>
<path d="M87.5798 24.3168H90.8239V14.1267H87.5798V24.3168ZM87.5798 12.7137H90.8239V10.0865H87.5798V12.7137Z" fill="white"/>
<path d="M92.2312 27.6803H95.4753V23.2619H95.5151C96.152 24.1177 97.0874 24.6352 98.401 24.6352C101.068 24.6352 102.839 22.5256 102.839 19.2217C102.839 16.1568 101.187 13.8282 98.4806 13.8282C97.0874 13.8282 96.0923 14.4452 95.3957 15.3607H95.336V14.1267H92.2312V27.6803ZM97.5651 22.1275C96.1719 22.1275 95.3758 20.9931 95.3758 19.3412C95.3758 17.6893 96.0923 16.4354 97.5053 16.4354C98.8985 16.4354 99.5553 17.5897 99.5553 19.3412C99.5553 21.0727 98.799 22.1275 97.5651 22.1275Z" fill="white"/>
<path d="M108.121 24.6352C110.788 24.6352 112.758 23.4809 112.758 21.2518C112.758 18.6446 110.648 18.1868 108.857 17.8883C107.563 17.6495 106.409 17.5499 106.409 16.8335C106.409 16.1966 107.026 15.898 107.822 15.898C108.718 15.898 109.335 16.1767 109.454 17.0922H112.44C112.28 15.082 110.728 13.8282 107.842 13.8282C105.434 13.8282 103.444 14.9427 103.444 17.0922C103.444 19.4805 105.334 19.9581 107.106 20.2567C108.459 20.4955 109.693 20.595 109.693 21.5105C109.693 22.1673 109.076 22.5256 108.101 22.5256C107.026 22.5256 106.349 22.028 106.23 21.013H103.165C103.265 23.2619 105.135 24.6352 108.121 24.6352Z" fill="white"/>
<path d="M117.165 24.6154C118.578 24.6154 119.473 24.0581 120.21 23.063H120.269V24.3168H123.374V14.1268H120.13V19.8189C120.13 21.0329 119.453 21.8688 118.339 21.8688C117.304 21.8688 116.806 21.2518 116.806 20.1373V14.1268H113.582V20.814C113.582 23.0829 114.816 24.6154 117.165 24.6154Z" fill="white"/>
<path d="M124.786 24.3168H128.03V18.6048C128.03 17.3907 128.627 16.5349 129.642 16.5349C130.617 16.5349 131.075 17.1718 131.075 18.2664V24.3168H134.319V18.6048C134.319 17.3907 134.896 16.5349 135.931 16.5349C136.906 16.5349 137.364 17.1718 137.364 18.2664V24.3168H140.608V17.6893C140.608 15.4005 139.454 13.8282 137.145 13.8282C135.832 13.8282 134.737 14.3855 133.941 15.6194H133.901C133.384 14.5248 132.368 13.8282 131.035 13.8282C129.562 13.8282 128.587 14.5248 127.95 15.5796H127.89V14.1267H124.786V24.3168Z" fill="white"/>
<path fill-rule="evenodd" clip-rule="evenodd" d="M16.9257 33.4388C26.0856 33.4388 33.511 26.0132 33.511 16.8534C33.511 7.69358 26.0856 0.268066 16.9257 0.268066C7.76584 0.268066 0.340332 7.69358 0.340332 16.8534C0.340332 26.0132 7.76584 33.4388 16.9257 33.4388ZM19.4856 13.0824C20.8994 11.6686 20.8994 9.37638 19.4856 7.96256C18.0718 6.54876 15.7796 6.54876 14.3658 7.96256C12.9521 9.37638 12.9521 11.6686 14.3658 13.0824L16.9257 15.6423L19.4856 13.0824ZM20.6968 19.4133C22.1106 20.8272 24.4028 20.8272 25.8166 19.4133C27.2303 17.9995 27.2303 15.7073 25.8166 14.2935C24.4028 12.8798 22.1106 12.8798 20.6968 14.2935L18.1369 16.8535L20.6968 19.4133ZM19.4856 25.7443C20.8994 24.3305 20.8994 22.0383 19.4856 20.6245L16.9257 18.0646L14.3658 20.6245C12.9521 22.0383 12.9521 24.3305 14.3658 25.7443C15.7796 27.1581 18.0718 27.1581 19.4856 25.7443ZM8.03481 19.4133C6.62104 17.9995 6.62104 15.7073 8.03481 14.2935C9.44865 12.8798 11.7408 12.8798 13.1547 14.2935L15.7145 16.8535L13.1547 19.4133C11.7408 20.8272 9.44865 20.8272 8.03481 19.4133Z" fill="white"/>
</g>
<defs>
<clipPath id="clip0_201_1303">
<rect width="140.976" height="34" fill="white" transform="translate(0.256104)"/>
</clipPath>
</defs>
</svg>
