<svg width="142" height="34" viewBox="0 0 142 34" fill="none" xmlns="http://www.w3.org/2000/svg">
<g clip-path="url(#clip0_201_1268)">
<path d="M43.3154 24.3168H53.2268V21.3314H46.8382V10.0865H43.3154V24.3168Z" fill="#61647D"/>
<path d="M59.0991 22.3266C57.6861 22.3266 56.9497 21.0926 56.9497 19.2417C56.9497 17.3908 57.6861 16.1369 59.0991 16.1369C60.5122 16.1369 61.2685 17.3908 61.2685 19.2417C61.2685 21.0926 60.5122 22.3266 59.0991 22.3266ZM59.119 24.6353C62.4029 24.6353 64.5524 22.3067 64.5524 19.2417C64.5524 16.1767 62.4029 13.8481 59.119 13.8481C55.855 13.8481 53.6658 16.1767 53.6658 19.2417C53.6658 22.3067 55.855 24.6353 59.119 24.6353Z" fill="#61647D"/>
<path d="M70.2365 27.8395C71.7491 27.8395 73.0826 27.5012 73.9782 26.7051C74.7942 25.9687 75.3316 24.8541 75.3316 23.3216V14.1267H72.2268V15.2214H72.187C71.5899 14.3656 70.6744 13.8282 69.321 13.8282C66.7934 13.8282 65.042 15.9378 65.042 18.9232C65.042 22.0479 67.1716 23.7595 69.4603 23.7595C70.6943 23.7595 71.4705 23.2619 72.0676 22.5853H72.1472V23.6003C72.1472 24.8342 71.57 25.5507 70.1967 25.5507C69.122 25.5507 68.5846 25.093 68.4055 24.5556H65.2609C65.5794 26.6852 67.4303 27.8395 70.2365 27.8395ZM70.2166 21.3513C69.0026 21.3513 68.2065 20.3562 68.2065 18.8237C68.2065 17.2713 69.0026 16.2762 70.2166 16.2762C71.57 16.2762 72.2865 17.4305 72.2865 18.8038C72.2865 20.2368 71.6297 21.3513 70.2166 21.3513Z" fill="#61647D"/>
<path d="M81.7156 22.3266C80.3025 22.3266 79.5661 21.0926 79.5661 19.2417C79.5661 17.3908 80.3025 16.1369 81.7156 16.1369C83.1287 16.1369 83.8846 17.3908 83.8846 19.2417C83.8846 21.0926 83.1287 22.3266 81.7156 22.3266ZM81.7355 24.6353C85.0191 24.6353 87.1685 22.3067 87.1685 19.2417C87.1685 16.1767 85.0191 13.8481 81.7355 13.8481C78.4715 13.8481 76.2822 16.1767 76.2822 19.2417C76.2822 22.3067 78.4715 24.6353 81.7355 24.6353Z" fill="#61647D"/>
<path d="M88.1165 24.3168H91.3605V14.1267H88.1165V24.3168ZM88.1165 12.7137H91.3605V10.0865H88.1165V12.7137Z" fill="#61647D"/>
<path d="M92.7678 27.6803H96.0119V23.2619H96.0517C96.6886 24.1177 97.624 24.6352 98.9376 24.6352C101.605 24.6352 103.376 22.5256 103.376 19.2217C103.376 16.1568 101.724 13.8282 99.0172 13.8282C97.624 13.8282 96.6289 14.4452 95.9323 15.3607H95.8726V14.1267H92.7678V27.6803ZM98.1017 22.1275C96.7085 22.1275 95.9124 20.9931 95.9124 19.3412C95.9124 17.6893 96.6289 16.4354 98.042 16.4354C99.4351 16.4354 100.092 17.5897 100.092 19.3412C100.092 21.0727 99.3356 22.1275 98.1017 22.1275Z" fill="#61647D"/>
<path d="M108.657 24.6352C111.324 24.6352 113.295 23.4809 113.295 21.2518C113.295 18.6446 111.185 18.1868 109.394 17.8883C108.1 17.6495 106.946 17.5499 106.946 16.8335C106.946 16.1966 107.563 15.898 108.359 15.898C109.254 15.898 109.871 16.1767 109.991 17.0922H112.976C112.817 15.082 111.265 13.8282 108.379 13.8282C105.971 13.8282 103.98 14.9427 103.98 17.0922C103.98 19.4805 105.871 19.9581 107.642 20.2567C108.996 20.4955 110.23 20.595 110.23 21.5105C110.23 22.1673 109.613 22.5256 108.637 22.5256C107.563 22.5256 106.886 22.028 106.767 21.013H103.702C103.801 23.2619 105.672 24.6352 108.657 24.6352Z" fill="#61647D"/>
<path d="M117.701 24.6154C119.114 24.6154 120.01 24.0581 120.746 23.063H120.806V24.3168H123.911V14.1268H120.667V19.8189C120.667 21.0329 119.99 21.8688 118.876 21.8688C117.841 21.8688 117.343 21.2518 117.343 20.1373V14.1268H114.119V20.814C114.119 23.0829 115.353 24.6154 117.701 24.6154Z" fill="#61647D"/>
<path d="M125.322 24.3168H128.566V18.6048C128.566 17.3907 129.163 16.5349 130.178 16.5349C131.154 16.5349 131.611 17.1718 131.611 18.2664V24.3168H134.856V18.6048C134.856 17.3907 135.433 16.5349 136.468 16.5349C137.443 16.5349 137.901 17.1718 137.901 18.2664V24.3168H141.145V17.6893C141.145 15.4005 139.99 13.8282 137.682 13.8282C136.368 13.8282 135.273 14.3855 134.477 15.6194H134.438C133.92 14.5248 132.905 13.8282 131.572 13.8282C130.099 13.8282 129.124 14.5248 128.487 15.5796H128.427V14.1267H125.322V24.3168Z" fill="#61647D"/>
<path fill-rule="evenodd" clip-rule="evenodd" d="M17.4623 33.4388C26.6222 33.4388 34.0477 26.0132 34.0477 16.8534C34.0477 7.69358 26.6222 0.268066 17.4623 0.268066C8.30246 0.268066 0.876953 7.69358 0.876953 16.8534C0.876953 26.0132 8.30246 33.4388 17.4623 33.4388ZM20.0222 13.0824C21.436 11.6686 21.436 9.37638 20.0222 7.96256C18.6084 6.54876 16.3162 6.54876 14.9024 7.96256C13.4887 9.37638 13.4887 11.6686 14.9024 13.0824L17.4623 15.6423L20.0222 13.0824ZM21.2334 19.4133C22.6472 20.8272 24.9394 20.8272 26.3532 19.4133C27.7669 17.9995 27.7669 15.7073 26.3532 14.2935C24.9394 12.8798 22.6472 12.8798 21.2334 14.2935L18.6735 16.8535L21.2334 19.4133ZM20.0222 25.7443C21.436 24.3305 21.436 22.0383 20.0222 20.6245L17.4623 18.0646L14.9024 20.6245C13.4887 22.0383 13.4887 24.3305 14.9024 25.7443C16.3162 27.1581 18.6084 27.1581 20.0222 25.7443ZM8.57143 19.4133C7.15766 17.9995 7.15766 15.7073 8.57143 14.2935C9.98527 12.8798 12.2775 12.8798 13.6913 14.2935L16.2511 16.8535L13.6913 19.4133C12.2775 20.8272 9.98527 20.8272 8.57143 19.4133Z" fill="#61647D"/>
</g>
<defs>
<clipPath id="clip0_201_1268">
<rect width="140.976" height="34" fill="white" transform="translate(0.792725)"/>
</clipPath>
</defs>
</svg>
