<svg width="47" height="47" viewBox="0 0 47 47" fill="none" xmlns="http://www.w3.org/2000/svg">
<path d="M12.9583 42.6667V29.25" stroke="#640EF1" stroke-width="3" stroke-miterlimit="10" stroke-linecap="round" stroke-linejoin="round"/>
<path d="M12.9583 10.0835V4.3335" stroke="#640EF1" stroke-width="3" stroke-miterlimit="10" stroke-linecap="round" stroke-linejoin="round"/>
<path d="M34.0417 42.6665V36.9165" stroke="#640EF1" stroke-width="3" stroke-miterlimit="10" stroke-linecap="round" stroke-linejoin="round"/>
<path d="M34.0417 17.7502V4.3335" stroke="#640EF1" stroke-width="3" stroke-miterlimit="10" stroke-linecap="round" stroke-linejoin="round"/>
<path d="M18.7083 13.9168V25.4168C18.7083 27.5252 17.7499 29.2502 14.8749 29.2502H11.0416C8.16659 29.2502 7.20825 27.5252 7.20825 25.4168V13.9168C7.20825 11.8085 8.16659 10.0835 11.0416 10.0835H14.8749C17.7499 10.0835 18.7083 11.8085 18.7083 13.9168Z" stroke="#640EF1" stroke-width="3" stroke-miterlimit="10" stroke-linecap="round" stroke-linejoin="round"/>
<path d="M39.7917 21.5833V33.0833C39.7917 35.1917 38.8334 36.9167 35.9584 36.9167H32.1251C29.2501 36.9167 28.2917 35.1917 28.2917 33.0833V21.5833C28.2917 19.475 29.2501 17.75 32.1251 17.75H35.9584C38.8334 17.75 39.7917 19.475 39.7917 21.5833Z" stroke="#640EF1" stroke-width="3" stroke-miterlimit="10" stroke-linecap="round" stroke-linejoin="round"/>
</svg>
