<svg width="47" height="46" viewBox="0 0 47 46" fill="none" xmlns="http://www.w3.org/2000/svg">
<path d="M34.9616 20.6808V28.3475C34.9616 28.8458 34.9424 29.325 34.8849 29.785C34.4441 34.96 31.3966 37.5283 25.7808 37.5283H25.0141C24.5349 37.5283 24.0749 37.7583 23.7874 38.1417L21.4874 41.2083C20.4716 42.5692 18.8233 42.5692 17.8074 41.2083L15.5074 38.1417C15.2582 37.8158 14.7024 37.5283 14.2808 37.5283H13.5141C7.39994 37.5283 4.33325 36.0142 4.33325 28.3475V20.6808C4.33325 15.065 6.92077 12.0175 12.0766 11.5767C12.5366 11.5192 13.0158 11.5 13.5141 11.5H25.7808C31.8949 11.5 34.9616 14.5667 34.9616 20.6808Z" stroke="white" stroke-width="3" stroke-miterlimit="10" stroke-linecap="round" stroke-linejoin="round"/>
<path d="M42.6283 13.0142V20.6809C42.6283 26.3159 40.0408 29.3442 34.885 29.7851C34.9425 29.3251 34.9617 28.8459 34.9617 28.3476V20.6809C34.9617 14.5667 31.895 11.5 25.7808 11.5H13.5142C13.0158 11.5 12.5367 11.5192 12.0767 11.5767C12.5175 6.42089 15.565 3.83337 21.1808 3.83337H33.4475C39.5616 3.83337 42.6283 6.90006 42.6283 13.0142Z" stroke="white" stroke-width="3" stroke-miterlimit="10" stroke-linecap="round" stroke-linejoin="round"/>
<path d="M26.3665 25.3958H26.3837" stroke="white" stroke-width="3" stroke-linecap="round" stroke-linejoin="round"/>
<path d="M19.658 25.3958H19.6752" stroke="white" stroke-width="3" stroke-linecap="round" stroke-linejoin="round"/>
<path d="M12.9497 25.3958H12.967" stroke="white" stroke-width="3" stroke-linecap="round" stroke-linejoin="round"/>
</svg>
